<svg width="604" height="800" viewBox="0 0 604 800" fill="none" xmlns="http://www.w3.org/2000/svg">
<path d="M451.465 543.647C408.469 566.021 359.837 577.929 310.413 577.929H240.916L364.054 800H593.343L451.465 543.647Z" fill="#072357"/>
<path d="M0 0V800H203.363V577.929H310.413C460.392 577.929 603.086 468.377 603.086 288.949C603.086 109.521 460.392 0 310.413 0H0ZM203.363 201.247H310.413C336.93 201.247 359.145 209.833 374.695 224.663C390.245 239.493 399.722 260.648 399.722 288.949C399.722 317.251 390.245 338.429 374.695 353.259C359.145 368.088 336.93 376.652 310.413 376.652H203.363V201.247Z" fill="#DA121A"/>
</svg>
